<svg width="145" height="32" viewBox="0 0 145 32" fill="none" xmlns="http://www.w3.org/2000/svg">
<g id="Logo_01 1">
<path id="Vector" d="M12.4696 10.587L12.674 13.9402L12.3561 14.0309C11.9474 11.7878 9.92688 10.1338 7.54306 10.1338C3.43374 10.1338 1.77641 13.3964 1.77641 17.4294C1.77641 21.8929 3.8424 24.4984 7.38405 24.4984C9.90413 24.4984 12.1291 23.1616 12.8102 21.4396L13.128 21.5529C12.4016 23.6827 10.1766 25.2235 7.11166 25.2235C2.84346 25.2235 0.164482 22.2327 0.164482 17.4294C0.164482 12.5582 2.93428 9.72595 7.83821 9.70337C9.24582 9.70337 10.9712 9.99792 12.4696 10.587ZM13.5682 24.9968V24.7702C14.4536 24.7702 15.2709 24.2266 15.9975 22.5952L21.0603 11.0174V10.9948L21.5824 9.70337H21.8095L27.6897 23.3202C28.121 24.3398 28.961 24.7477 29.7556 24.7702V24.9968H24.3977V24.7702C26.0777 24.725 26.5318 24.1586 25.9642 22.8444L24.216 18.7435H18.3132L16.7239 22.6178C16.1791 23.9546 16.8148 24.657 18.8581 24.7702V24.9968H13.5682ZM18.4721 18.4037H24.0571L21.1965 11.7425L18.4721 18.4037ZM34.0213 23.3655C34.0213 24.6117 35.3835 24.7477 36.1327 24.7702V24.9968H30.4343V24.7702C31.1834 24.7477 32.5456 24.589 32.5456 23.2749V11.6518C32.5456 10.3378 31.1834 10.1792 30.4343 10.1338V9.92993H33.8852C34.5208 9.83923 35.9057 9.70337 36.496 9.70337C40.4237 9.70337 42.5123 11.2894 42.5123 14.1668C42.5123 17.0668 40.4009 18.6528 36.496 18.6528C35.5198 18.6528 34.7479 18.5849 34.0213 18.4716V23.3655ZM34.0213 10.4737V18.0185C34.7932 18.1317 35.6787 18.1997 36.723 18.1997C39.4929 18.1997 40.8777 16.863 40.8777 14.1668C40.8777 11.4705 39.5155 10.1565 36.723 10.1565C36.1555 10.1565 34.7025 10.315 34.0213 10.4737ZM56.2432 24.9968H43.87V24.7702C44.6191 24.7477 45.9814 24.589 45.9814 23.2749V11.6518C45.9814 10.3378 44.6191 10.1792 43.87 10.1338V9.92993H55.721L55.8345 13.5777H55.5167C55.2897 11.1081 54.4497 10.3603 52.0431 10.3603H49.069C47.9111 10.3603 47.389 10.7229 47.389 11.5385V17.1575H51.0441C52.4518 17.1575 52.9058 16.6364 53.1783 14.8691H53.4053V19.8763H53.1783C52.9058 18.1092 52.4291 17.5881 51.0441 17.5881H47.389V23.3882C47.389 24.7022 48.3198 24.5211 49.069 24.5664H52.588C54.8811 24.5664 55.6756 23.728 56.1524 20.7147H56.3794L56.2432 24.9968ZM57.7047 9.92993H63.3351V10.1338C62.586 10.1792 61.2237 10.3378 61.2237 11.6518V23.3882C61.2237 24.7022 62.1545 24.5211 62.9037 24.5664H65.9687C68.2618 24.5664 69.0564 23.728 69.5331 20.7147H69.7601L69.6239 24.9968H57.7047V24.7702C58.454 24.7477 59.8161 24.589 59.8161 23.2749V11.6518C59.8161 10.3378 58.454 10.1792 57.7047 10.1338V9.92993ZM71.3399 9.92993H76.9704V10.1338C76.2212 10.1792 74.8589 10.3378 74.8589 11.6518V23.3882C74.8589 24.7022 75.7898 24.5211 76.539 24.5664H79.6039C81.897 24.5664 82.6916 23.728 83.1684 20.7147H83.3954L83.2591 24.9968H71.3399V24.7702C72.0891 24.7477 73.4513 24.589 73.4513 23.2749V11.6518C73.4513 10.3378 72.0891 10.1792 71.3399 10.1338V9.92993ZM90.6056 9.92993V10.1338C89.8564 10.1792 88.4942 10.3378 88.4942 11.6518V23.2749C88.4942 24.589 89.8564 24.7477 90.6056 24.7702V24.9968H84.9751V24.7702C85.7243 24.7477 87.0865 24.589 87.0865 23.2749V11.6518C87.0865 10.3378 85.7243 10.1792 84.9751 10.1338V9.92993H90.6056Z" fill="#171717"/>
<path id="Vector_2" d="M106.997 2.66727C105.665 4.36089 104.595 6.49745 103.316 9.3896L100.496 15.9035C102.898 16.1119 105.535 16.2422 108.172 16.2944L110.965 9.3896C113.028 4.23058 116.579 1.65108 120.756 2.1722L120.704 2.51095C117.1 2.04192 115.013 3.89181 112.767 9.3896L108.616 19.6295C106.814 24.085 103.655 29.0355 98.7726 29.8432L98.6943 29.5566C102.715 28.4362 105.248 23.4335 106.762 19.7597L108.015 16.6591C105.378 16.7894 102.715 16.7373 100.261 16.4767L98.9031 19.6295C95.7962 26.7948 90.9401 29.7651 86.9193 29.7651C86.1882 29.7651 85.4571 29.6609 84.8045 29.4785C81.828 28.5665 79.8177 25.8046 80.4182 21.7139C81.0449 17.7534 84.3607 14.7049 88.4074 14.7049C90.705 14.7049 92.6632 15.8514 92.8982 17.9619L92.5587 18.0922C92.376 16.0338 90.6529 14.9916 88.5641 14.9916C84.7523 14.9916 81.567 17.9359 80.9143 21.6618C80.2876 25.2315 82.1936 28.1236 85.0655 28.9052C85.5616 29.0355 86.1099 29.1137 86.6582 29.1137C89.9479 29.1137 93.9947 26.5342 96.9711 19.7597L98.4855 16.2683C96.945 16.0338 95.5352 15.7211 94.3341 15.3564L94.3863 15.2C95.6918 15.4085 97.1539 15.5908 98.7204 15.7472L101.488 9.3896C102.532 7.01856 104.569 4.04825 105.979 2.87574C105.143 2.79758 103.968 2.74543 102.663 2.74543C98.7204 2.74543 93.5509 3.34469 92.4021 6.315C91.7493 8.03475 92.5849 10.1452 94.4908 11.9431L94.308 12.1776C91.8278 10.1973 90.8356 8.13893 91.4883 6.08052C92.4804 3.00592 97.5716 2.35463 101.697 2.35463C104.151 2.35463 106.266 2.58911 106.997 2.66727ZM123.218 16.0598L119.798 22.9906C118.805 25.049 118.571 27.2637 120.32 27.2637C121.992 27.2637 124.237 25.3878 125.829 20.7759L126.09 20.802C124.524 25.518 122.487 27.9412 120.163 27.9412C117.683 27.9412 116.77 26.2737 117.683 23.7202C115.961 26.3257 114.184 27.9412 112.827 27.9412C110.712 27.9412 110.425 24.9969 112.618 19.7858C114.237 16.0338 116.978 13.4543 119.38 13.4543C120.66 13.4543 121.234 14.731 121.156 16.3986L121.521 15.669C122.044 14.6528 123.349 13.7669 124.471 13.6887L124.524 13.8712C124.211 14.1578 123.792 14.9394 123.218 16.0598ZM120.999 16.7633C120.712 15.3302 120.399 14.5486 119.484 14.5486C117.866 14.5486 115.673 16.8937 114.237 20.2548C112.618 24.111 112.54 26.5342 113.741 26.5342C114.889 26.5342 117.213 23.9026 119.406 19.9943L120.999 16.7633ZM131.219 10.6403C131.167 8.39954 132.994 6.47132 135.109 6.57562L135.292 6.86224C134.196 7.722 132.263 9.6501 131.558 10.7966L131.219 10.6403ZM133.803 13.3761C134.691 13.3501 135.213 13.8451 135.736 14.3923C137.537 13.9494 139.86 12.9853 140.853 13.9232C142.08 15.0697 141.27 18.1182 138.425 22.9906C137.302 24.9708 137.198 27.2637 138.999 27.2637C140.619 27.2637 142.864 25.3878 144.456 20.7759L144.717 20.802C143.151 25.518 141.14 27.9412 138.478 27.9412C135.892 27.9412 134.979 25.6223 136.728 22.6519C139.443 17.9619 140.226 15.669 139.313 14.8873C138.764 14.3402 137.877 14.7571 135.97 14.8873L132.446 22.1047C130.645 25.8046 129.104 27.9412 126.989 27.9412C124.195 27.9412 123.386 25.8046 124.952 22.6519L128.373 15.669C128.87 14.5486 130.252 13.7669 131.271 13.6887L131.323 13.8712C130.983 14.1838 130.514 15.0437 130.018 16.0598L126.65 22.9906C125.631 25.049 125.397 27.2637 127.146 27.2637C128.66 27.2637 130.306 25.5701 132.028 21.9484L135.37 14.9394C133.308 15.2 133.15 14.0535 133.803 13.3761Z" fill="#9D8168"/>
</g>
</svg>
