<svg width="14" height="14" viewBox="0 0 14 14" fill="none" xmlns="http://www.w3.org/2000/svg">
<g id="vuesax/linear/unlock">
<g id="unlock">
<path id="Vector" d="M9.91667 12.8334H4.08334C1.75001 12.8334 1.16667 12.25 1.16667 9.91671V8.75004C1.16667 6.41671 1.75001 5.83337 4.08334 5.83337H9.91667C12.25 5.83337 12.8333 6.41671 12.8333 8.75004V9.91671C12.8333 12.25 12.25 12.8334 9.91667 12.8334Z" stroke="white" stroke-width="0.8" stroke-linecap="round" stroke-linejoin="round"/>
<path id="Vector_2" d="M3.5 5.83329V4.66663C3.5 2.73579 4.08333 1.16663 7 1.16663C9.625 1.16663 10.5 2.33329 10.5 4.08329" stroke="white" stroke-width="0.8" stroke-linecap="round" stroke-linejoin="round"/>
<path id="Vector_3" d="M7.00001 10.7917C7.80542 10.7917 8.45834 10.1387 8.45834 9.33333C8.45834 8.52792 7.80542 7.875 7.00001 7.875C6.19459 7.875 5.54167 8.52792 5.54167 9.33333C5.54167 10.1387 6.19459 10.7917 7.00001 10.7917Z" stroke="white" stroke-width="0.8" stroke-linecap="round" stroke-linejoin="round"/>
</g>
</g>
</svg>
